<svg id="Layer_1" data-name="Layer 1" xmlns="http://www.w3.org/2000/svg" viewBox="0 0 572.47 660.64"><defs><style>.cls-1{fill:#262626;}</style></defs><path class="cls-1" d="M857.12,599.1a1.17,1.17,0,0,0-1.2-1.87c-13.78,3.49-63.58,10.21-62.58-75.66,1.16-99.62,81.15-198.64,86.53-206.1s34.07-50.75,48.62-29.76-3.26,123.53-10.61,160.57c-6.57,33-28.89,164.19-4.11,216.89A26.34,26.34,0,0,0,941,678c21.65-2.83,62-15.27,101-65.68a1.18,1.18,0,0,0-1.65-1.66c-15.25,12.22-48.27,34.67-57.36,8.47-11.94-34.42-10.33-77.81,18.61-228.71s-11.43-165.19-36.8-162.23S804.89,332.74,760.16,510.34C716.11,685.23,807.33,661.08,857.12,599.1Z" transform="translate(-746.6 -190.01)"/><path class="cls-1" d="M983,704.75a.81.81,0,0,0-.14,1.42,63,63,0,0,0,39,9.73c18.26-1.55,29.39-6.15,34.25-9.63a.8.8,0,0,0-.28-1.42c-2.52-.56-5.42-2.4-10.65-7.07C1036.5,690,1033.78,679,1033.1,674a.79.79,0,0,0-1.49-.27C1029.17,678.26,1023.2,687.62,983,704.75Z" transform="translate(-746.6 -190.01)"/><path class="cls-1" d="M1206.12,307a1.18,1.18,0,0,0,1.21,1.87c13.77-3.49,63.58-10.21,62.58,75.66-1.17,99.62-81.15,198.64-86.54,206.1s-34.07,50.75-48.62,29.76,3.26-123.53,10.62-160.57c6.56-33,28.88-164.18,4.1-216.89a26.34,26.34,0,0,0-27.24-14.85c-21.65,2.83-62,15.27-101,65.68a1.18,1.18,0,0,0,1.65,1.66c15.24-12.21,48.26-34.67,57.35-8.47,12,34.42,10.33,77.81-18.6,228.71s11.42,165.19,36.79,162.23,159.94-104.53,204.68-282.13C1347.14,220.9,1255.92,245.06,1206.12,307Z" transform="translate(-746.6 -190.01)"/><path class="cls-1" d="M1080.27,201.38a.8.8,0,0,0,.14-1.41,62.93,62.93,0,0,0-39-9.74c-18.27,1.55-29.4,6.15-34.26,9.63a.8.8,0,0,0,.28,1.42c2.52.57,5.42,2.4,10.66,7.08,8.65,7.73,11.37,18.74,12.05,23.82a.79.79,0,0,0,1.49.27C1034.07,227.87,1040,218.51,1080.27,201.38Z" transform="translate(-746.6 -190.01)"/><path class="cls-1" d="M746.6,756.64H754l23.93,83.17,25.78-83.17H812L838,839.81l23.8-83.17h7.4l-26.84,92.55h-8.46L808,765.77,781.9,849.19h-8.46Z" transform="translate(-746.6 -190.01)"/><path class="cls-1" d="M871.27,816.14c0-19.57,15.47-34.51,34.78-34.51a34.51,34.51,0,1,1,0,69C886.74,850.65,871.27,835.71,871.27,816.14Zm62.67,0c0-15.73-12.16-28.16-27.89-28.16a28.16,28.16,0,0,0,0,56.32C921.78,844.3,933.94,831.87,933.94,816.14Z" transform="translate(-746.6 -190.01)"/><path class="cls-1" d="M952.05,816.14c0-19.57,15.47-34.51,34.78-34.51a34.51,34.51,0,1,1,0,69C967.52,850.65,952.05,835.71,952.05,816.14Zm62.67,0c0-15.73-12.16-28.16-27.89-28.16a28.16,28.16,0,0,0,0,56.32C1002.56,844.3,1014.72,831.87,1014.72,816.14Z" transform="translate(-746.6 -190.01)"/><path class="cls-1" d="M1093.25,808.07v41.12h-6.74V808.07c0-12.16-7-20.09-19.43-20.09-13,0-23.14,8.46-23.14,26.31v34.9h-6.61V756.64h6.61v39c5-9.79,13.48-14,23.67-14C1083.34,781.63,1093.25,792.08,1093.25,808.07Z" transform="translate(-746.6 -190.01)"/><path class="cls-1" d="M1176.81,783.09v66.1h-6.74V834.25a31.78,31.78,0,0,1-28.43,16.4,34.51,34.51,0,0,1,0-69,31.78,31.78,0,0,1,28.43,16.4V783.09Zm-6.74,33a28,28,0,1,0-27.9,28.16A27.71,27.71,0,0,0,1170.07,816.14Z" transform="translate(-746.6 -190.01)"/><path class="cls-1" d="M1291.83,807.28v41.91h-6.6V807.28c0-12.56-7.28-19.3-17.59-19.3-11.11,0-19.83,7.4-19.83,24.32v36.89h-6.61V807.28c0-12.56-6.75-19.3-16.93-19.3-10.84,0-20.49,7.4-20.49,24.32v36.89h-6.61v-66.1h6.61v11.37c4.89-9.13,12.82-12.83,21.29-12.83,9.65,0,17.18,4.76,20.62,13.49a24.08,24.08,0,0,1,22.08-13.49C1281.79,781.63,1291.83,790.75,1291.83,807.28Z" transform="translate(-746.6 -190.01)"/><path class="cls-1" d="M1308.49,761.8a5.29,5.29,0,1,1,5.29,5.29A5.28,5.28,0,0,1,1308.49,761.8Zm2,21.29h6.61v66.1h-6.61Z" transform="translate(-746.6 -190.01)"/></svg>