<svg clip-rule="evenodd" fill-rule="evenodd" stroke-linejoin="round" stroke-miterlimit="2" viewBox="0 0 469 90" xmlns="http://www.w3.org/2000/svg"><path d="m176.422 39.764c0 .55-.255 1.07-.691 1.406s-1.003.45-1.535.31c0 0-.001 0-.001-.001-.714-.188-1.57-.282-2.566-.282-1.729 0-3.053.508-3.974 1.523s-1.382 2.715-1.382 5.102v17.9h-2.142c-1.729 0-3.105-.423-4.13-1.268-1.024-.846-1.536-2.077-1.536-3.693v-14.32c0-1.541.211-3.054.634-4.539.423-1.484 1.095-2.781 2.016-3.89s2.114-2.011 3.58-2.706 3.223-1.043 5.271-1.043c1.184 0 2.19.155 3.017.465.826.31 1.489.705 1.987 1.184s.864 1.024 1.099 1.635.353 1.207.353 1.79z" fill="#343434" fill-rule="nonzero"/><path d="m148.729 30.975c-1.166 2.253-3.839 3.271-6.208 2.364-1.486-.644-2.752-.973-3.753-1.169-1.442-.283-2.567-.328-4.013-.328-7.251 0-12.251 5.887-12.251 13.138s5.001 13.237 12.251 13.138c5.772-.08 8.356-3.614 9.46-8.636h-8.3c-.64 0-1.16-.519-1.16-1.16 0-.001 0-.002 0-.003 0-3.558 2.884-6.442 6.442-6.442h3.018 5.662c1.427 0 2.631 1.061 2.809 2.477.097.852.152 1.719.152 2.599 0 7.932-5.634 18.769-18.083 18.769-11.448 0-19.856-9.294-19.856-20.742s8.408-20.743 19.856-20.743c2.823-.003 5.41.248 7.967.891 1.717.433 3.365 1.232 5.008 2.264 1.213.75 1.643 2.308.988 3.574.012.007.011.008.011.009z" fill="#343434"/><path d="m152.619 49.484c-.192 1.416-.549 2.872-1.095 4.3h-8.918c.725-1.184 1.232-2.621 1.608-4.3z"/><g fill="#343434" fill-rule="nonzero"><path d="m197.564 52.163h-2.763c-1.466 0-2.687.085-3.665.254-.977.169-1.757.418-2.339.747-.583.329-.987.742-1.212 1.24-.226.498-.339 1.057-.339 1.677 0 1.241.461 2.195 1.382 2.862.92.667 2.245 1 3.974 1 3.308 0 4.962-1.597 4.962-4.792zm7.554 2.932c0 1.654-.286 3.166-.859 4.538-.574 1.372-1.382 2.547-2.425 3.524s-2.283 1.734-3.721 2.269c-1.437.536-3.021.804-4.75.804h-1.578c-1.842 0-3.533-.249-5.074-.747s-2.861-1.18-3.961-2.044c-1.099-.865-1.945-1.903-2.537-3.115s-.888-2.532-.888-3.961c0-1.39.268-2.678.804-3.862.535-1.184 1.409-2.212 2.621-3.086s2.81-1.56 4.792-2.058c1.983-.498 4.403-.747 7.259-.747h2.706v-.395c0-2.199-.54-3.702-1.621-4.51-1.08-.808-2.767-1.212-5.06-1.212-1.39 0-2.635.117-3.735.352-1.099.235-2.053.536-2.861.902-.808.367-1.489.761-2.044 1.184 0 0 0 .001-.001.001-.289.22-.678.257-1.003.096-.326-.161-.532-.493-.532-.857 0-.335 0-.579 0-.579 0-.846.202-1.719.606-2.621.404-.903 1.057-1.729 1.959-2.481s2.077-1.358 3.524-1.818c1.447-.461 3.185-.691 5.215-.691 1.748 0 3.411.221 4.989.662 1.579.442 2.974 1.199 4.187 2.27 1.212 1.071 2.18 2.504 2.903 4.299.724 1.794 1.085 4.035 1.085 6.723z"/><path d="m233.026 51.233c0-3.702-.606-6.38-1.818-8.034s-3.068-2.481-5.568-2.481c-2.161 0-3.805.837-4.933 2.509-1.127 1.673-1.691 3.862-1.691 6.568 0 3.12.7 5.525 2.1 7.217 1.4 1.691 3.256 2.537 5.567 2.537 1.88 0 3.407-.761 4.581-2.284 1.175-1.522 1.762-3.533 1.762-6.032zm7.977-2.03c0 2.5-.31 4.802-.93 6.907-.62 2.104-1.517 3.923-2.692 5.454-1.174 1.532-2.636 2.725-4.383 3.58-1.748.855-3.759 1.283-6.033 1.283-1.729 0-3.274-.437-4.637-1.311-1.362-.874-2.429-1.978-3.199-3.312v11.366c0 1.305-1.058 2.362-2.363 2.362-.04 0-.062 0-.062 0-.695 0-1.372-.122-2.029-.366-.658-.245-1.236-.602-1.734-1.072-.498-.469-.902-1.028-1.212-1.677-.31-.648-.465-1.395-.465-2.241v-18.83c0-2.575.3-4.943.902-7.104.601-2.161 1.536-4.008 2.805-5.539 1.268-1.532 2.884-2.721 4.848-3.566 1.964-.846 4.308-1.269 7.033-1.269 2.086 0 3.994.432 5.723 1.297 1.729.864 3.218 2.006 4.468 3.425s2.222 3.054 2.917 4.905c.696 1.851 1.043 3.754 1.043 5.708z"/><path d="m272.209 65.722c-1.616 0-2.894-.441-3.834-1.325-.939-.883-1.409-2.17-1.409-3.862v-12.713c0-1.259-.165-2.344-.493-3.256-.329-.911-.776-1.644-1.339-2.199-.564-.554-1.217-.967-1.96-1.24-.742-.272-1.536-.409-2.382-.409-.62 0-1.259.127-1.916.381-.658.254-1.264.667-1.819 1.24-.554.573-1.005 1.325-1.353 2.255-.347.931-.521 2.082-.521 3.454v15.312c0 1.305-1.058 2.362-2.362 2.362-.11 0-.175 0-.175 0-1.861 0-3.214-.46-4.06-1.381-.845-.921-1.268-2.189-1.268-3.806v-34.03c0-1.304 1.057-2.362 2.362-2.362h.062c1.861 0 3.242.465 4.144 1.395.902.931 1.353 2.129 1.353 3.594v8.88c.263-.47.634-.944 1.114-1.423.479-.48 1.01-.921 1.592-1.325.583-.404 1.222-.738 1.917-1.001.696-.263 1.726-.393 2.143-.395 4.04-.015 7.174 1.161 9.401 3.482s3.34 5.699 3.34 10.134v15.876c0 1.305-1.057 2.362-2.362 2.362-.11 0-.175 0-.175 0z"/><path d="m297.157 61.325c0 1.691-.357 2.894-1.071 3.608-.715.714-1.899 1.071-3.552 1.071-3.007 0-5.309-.827-6.907-2.481-1.597-1.653-2.396-4.059-2.396-7.216v-18.859c0-.583.232-1.142.644-1.555.412-.412.971-.643 1.554-.643h.001c1.729 0 3.082.469 4.059 1.409s1.466 2.387 1.466 4.341v14.574c0 1.579.357 2.655 1.071 3.228s1.936.86 3.665.86h.002c.388 0 .76.154 1.035.428.274.275.429.647.429 1.036zm-5.554-33.546c0 1.241-.451 2.312-1.353 3.214s-1.973 1.353-3.213 1.353c-1.222 0-2.279-.451-3.172-1.353-.892-.902-1.339-1.973-1.339-3.214 0-1.221.447-2.274 1.339-3.157.893-.883 1.95-1.325 3.172-1.325 1.24 0 2.311.442 3.213 1.325s1.353 1.936 1.353 3.157z"/><path d="m323.824 55.912c0 3.308-1.118 5.887-3.355 7.738-2.236 1.851-5.45 2.777-9.64 2.777-1.429 0-2.749-.174-3.961-.522-1.212-.347-2.269-.803-3.171-1.367-.902-.563-1.602-1.212-2.1-1.945s-.747-1.503-.747-2.311c0 0 .002-.571.005-1.251.001-.455.242-.876.633-1.108.392-.232.877-.242 1.277-.025 0 .001.001.001.001.002.677.366 1.438.686 2.284.958.845.273 1.733.484 2.664.634.93.151 1.855.226 2.776.226 3.759 0 5.638-1.137 5.638-3.411 0-.451-.084-.841-.254-1.17-.169-.329-.483-.629-.944-.902-.46-.272-1.113-.512-1.959-.719-.846-.206-1.945-.413-3.298-.62-3.308-.451-5.76-1.344-7.358-2.678-1.597-1.334-2.396-3.195-2.396-5.581 0-1.447.315-2.829.945-4.144.629-1.316 1.522-2.462 2.678-3.439 1.155-.978 2.541-1.753 4.158-2.326 1.616-.573 3.429-.86 5.44-.86 1.767 0 3.275.202 4.525.606 1.249.404 2.278.931 3.086 1.579s1.396 1.367 1.762 2.156c.367.79.55 1.551.55 2.284v.001c0 .565-.288 1.091-.764 1.396-.476.306-1.075.348-1.588.112-.498-.23-1.039-.433-1.595-.621-1.635-.555-3.382-.832-5.243-.832-2.368 0-3.998.329-4.891.987-.892.658-1.339 1.484-1.339 2.48 0 .376.08.71.24 1.001s.46.555.902.789c.441.235 1.066.447 1.874.635.809.188 1.88.394 3.214.62 3.289.545 5.769 1.531 7.442 2.96 1.673 1.428 2.509 3.392 2.509 5.891z"/><path d="m330.11 35.813c0-.77.042-1.433.127-1.987s.211-1.062.381-1.522c.169-.461.456-1.011.731-1.426.353-.532.547-.812.954-1.265.551-.614 1.171-1.145 1.824-1.509.65-.364 1.537-.607 2.747-.607h.001c.514 0 .931.417.931.931v6.117h8.434c.627 0 1.227.249 1.67.692s.692 1.044.692 1.67v.823c0 .808-.376 1.626-1.127 2.453-.752.827-1.917 1.24-3.496 1.24h-6.173v12.178c0 2.029.423 3.472 1.268 4.327.846.855 2.058 1.282 3.637 1.282 1.253 0 2.417-.089 3.417-.268.59-.139 1.212-.001 1.687.375.476.376.753.949.753 1.556.034 0 .034.001.034.001 0 1.616-.568 2.884-1.705 3.805s-2.843 1.382-5.116 1.382c-3.966 0-6.902-1.011-8.81-3.031-1.907-2.02-2.861-4.853-2.861-8.499z"/><path d="m372.169 45.003c0-1.579-.531-2.753-1.593-3.524-1.062-.77-2.495-1.155-4.299-1.155-.921 0-1.776.183-2.565.549-.789.367-1.475.846-2.058 1.438s-1.034 1.292-1.353 2.1c-.32.808-.498 1.654-.536 2.537l-.056 1.043h3.439c1.861 0 3.369-.056 4.524-.169 1.156-.113 2.068-.287 2.735-.522.667-.234 1.127-.545 1.381-.93s.381-.841.381-1.367zm7.273.93c0 2.838-1.156 4.807-3.468 5.906-2.311 1.099-6.023 1.649-11.135 1.649h-5.074c.301 1.955 1.25 3.51 2.847 4.665 1.598 1.156 3.552 1.734 5.864 1.734 1.616 0 3.298-.202 5.046-.606.978-.226 1.965-.569 2.862-1.027.396-.214.875-.203 1.26.027.386.231.622.647.622 1.096.02.002.02.003.02.003 0 .996-.183 1.917-.55 2.762-.366.846-.991 1.588-1.875 2.227-.883.639-2.048 1.142-3.495 1.508-1.447.367-3.223.55-5.328.55-1.935 0-3.824-.366-5.666-1.099s-3.477-1.786-4.905-3.158-2.574-3.016-3.439-4.933c-.864-1.917-1.297-4.068-1.297-6.455 0-2.594.376-4.938 1.128-7.033.752-2.096 1.799-3.876 3.143-5.342s2.951-2.589 4.82-3.369c1.87-.78 3.923-1.17 6.16-1.17 1.616 0 3.171.277 4.665.832 1.494.554 2.819 1.348 3.975 2.382 1.156 1.033 2.081 2.302 2.777 3.805.695 1.504 1.043 3.186 1.043 5.046z"/><path d="m391.138 63.176c0 .462-.091.891-.272 1.285-.182.393-.419.737-.713 1.031s-.638.532-1.032.713-.822.272-1.285.272-.894-.091-1.294-.272-.748-.419-1.041-.713c-.294-.294-.529-.638-.704-1.031-.175-.394-.263-.823-.263-1.285 0-.463.088-.892.263-1.286.175-.393.41-.741.704-1.041.293-.3.641-.537 1.041-.713.4-.175.831-.262 1.294-.262s.891.087 1.285.262c.394.176.738.413 1.032.713s.531.648.713 1.041c.181.394.272.823.272 1.286z"/><path d="m411.529 49.988c-.013.424-.241.812-.604 1.031-.364.218-.814.237-1.194.05-.115-.061-.236-.117-.359-.172-.951-.419-2.164-.628-3.639-.628-.751 0-1.47.141-2.158.422s-1.288.672-1.801 1.173c-.512.5-.922 1.081-1.228 1.744-.307.663-.46 1.382-.46 2.158 0 1.888.51 3.417 1.529 4.586 1.019 1.17 2.417 1.754 4.193 1.754 1.488 0 2.679-.2 3.573-.6.083-.037.165-.075.246-.112.398-.186.862-.156 1.232.08.37.235.594.643.594 1.082h.001c0 1.251-.556 2.28-1.669 3.086-1.113.807-2.608 1.21-4.484 1.21-1.438 0-2.795-.259-4.071-.778-1.275-.519-2.395-1.241-3.358-2.167-.963-.925-1.732-2.017-2.307-3.273-.575-1.257-.863-2.624-.863-4.099 0-1.489.25-2.899.75-4.231.501-1.332 1.229-2.498 2.186-3.498.957-1.001 2.129-1.795 3.517-2.383 1.389-.587 2.964-.881 4.728-.881.813 0 1.566.115 2.26.347.694.231 1.291.55 1.792.956.5.407.891.879 1.172 1.417.282.538.422 1.113.422 1.726z"/><path d="m428.994 56.497c0-2.076-.397-3.699-1.191-4.868s-2.035-1.754-3.724-1.754c-1.488 0-2.601.55-3.339 1.651-.738 1.1-1.107 2.514-1.107 4.24 0 2.063.391 3.673 1.173 4.83.781 1.157 2.029 1.735 3.742 1.735 1.514 0 2.633-.55 3.358-1.65.726-1.101 1.088-2.496 1.088-4.184zm-14.707 0c0-1.563.219-3.023.657-4.38.437-1.357 1.091-2.542 1.96-3.555s1.945-1.814 3.226-2.401c1.282-.588 2.755-.882 4.418-.882 1.564 0 2.952.288 4.165.863s2.235 1.347 3.067 2.317c.832.969 1.466 2.082 1.904 3.339s.657 2.579.657 3.968c0 1.563-.225 3.023-.676 4.38-.45 1.357-1.103 2.539-1.96 3.545-.857 1.007-1.926 1.801-3.208 2.383-1.282.581-2.754.872-4.418.872-1.563 0-2.951-.291-4.164-.872-1.213-.582-2.236-1.351-3.067-2.308-.832-.956-1.467-2.063-1.904-3.32-.438-1.257-.657-2.573-.657-3.949z"/><path d="m467.226 66.477c-1.401 0-2.404-.319-3.011-.957-.606-.637-.91-1.575-.91-2.813v-7.992c0-1.713-.344-2.955-1.031-3.724-.688-.769-1.607-1.153-2.758-1.153-1.051 0-1.898.359-2.542 1.078s-.966 1.798-.966 3.236v10.937c0 .368-.146.721-.407.982-.26.26-.613.406-.981.406-1.151 0-2.064-.319-2.739-.957-.675-.637-1.013-1.575-1.013-2.813v-7.992c0-1.713-.353-2.955-1.06-3.724s-1.635-1.153-2.786-1.153c-1 0-1.832.378-2.495 1.134-.663.757-.994 1.855-.994 3.293v10.824c0 .767-.622 1.388-1.388 1.388-1.076 0-1.967-.325-2.674-.975-.706-.651-1.059-1.582-1.059-2.795v-8.03c0-1.4.187-2.679.562-3.836.376-1.157.945-2.151 1.707-2.983.763-.831 1.723-1.469 2.88-1.913s2.517-.666 4.08-.666c1.351 0 2.551.288 3.602.863s1.951 1.363 2.701 2.364c.588-.976 1.414-1.758 2.477-2.345 1.063-.588 2.219-.882 3.47-.882 1.176 0 2.289.178 3.339.535 1.051.356 1.967.9 2.749 1.632.781.731 1.397 1.647 1.847 2.748.451 1.101.676 2.376.676 3.827v11.182c0 .704-.571 1.274-1.274 1.274-.001 0-.002 0-.002 0z"/></g><circle cx="44.728" cy="44.772" fill="#ff6944" r="44.728"/><path d="m66.421 23.649c-1.981 3.828-6.459 5.637-10.542 4.258-1.634-.658-3.057-1.016-4.225-1.245-2.039-.399-3.629-.463-5.673-.462-10.25 0-17.319 8.322-17.319 18.572 0 10.251 7.07 18.714 17.319 18.573 8.16-.112 11.813-5.109 13.373-12.208h-12.271c-.292 0-.572-.116-.779-.323s-.323-.487-.323-.779c0-.001 0-.002 0-.003 0-2.558 1.016-5.012 2.825-6.821s4.263-2.825 6.821-2.825h3.727 9.012c1.38 0 2.559.994 2.792 2.353.251 1.571.386 3.181.386 4.823 0 11.214-7.964 26.534-25.563 26.534-16.184 0-28.07-13.14-28.07-29.324s11.886-29.323 28.07-29.323c3.991-.005 7.647.349 11.263 1.259 2.905.732 5.671 2.207 8.454 4.101.923.628 1.232 1.846.719 2.837.004.002.004.003.004.003z" fill="#fff"/><path d="m71.268 51.14c-.278 2.001-.788 4.061-1.543 6.078h-12.645c1.045-1.723 1.754-3.748 2.273-6.078z" fill-opacity=".18"/></svg>