<svg id="Layer_1" data-name="Layer 1" xmlns="http://www.w3.org/2000/svg" viewBox="0 0 190.62 177.1"><defs><style>.cls-1{fill:#6e6e6d;}</style></defs><path class="cls-1" d="M897.34,518.34a.39.39,0,0,0-.4-.63c-4.64,1.18-21.4,3.44-21.07-25.47.39-33.53,27.32-66.86,29.13-69.37s11.47-17.08,16.37-10-1.1,41.58-3.58,54c-2.2,11.12-9.72,55.27-1.38,73a8.89,8.89,0,0,0,9.17,5c7.29-1,20.88-5.15,34-22.11a.4.4,0,0,0-.55-.56c-5.13,4.11-16.25,11.67-19.31,2.85-4-11.59-3.47-26.19,6.26-77s-3.84-55.6-12.38-54.6-53.84,35.18-68.9,95C849.88,547.33,880.58,539.2,897.34,518.34Z" transform="translate(-860.77 -380.64)"/><path class="cls-1" d="M939.7,553.9a.28.28,0,0,0,0,.48,21.2,21.2,0,0,0,13.13,3.28c6.15-.53,9.89-2.07,11.53-3.24a.27.27,0,0,0-.1-.48c-.84-.19-1.82-.81-3.58-2.38a13.52,13.52,0,0,1-4.06-8,.27.27,0,0,0-.5-.09C955.26,545,953.25,548.14,939.7,553.9Z" transform="translate(-860.77 -380.64)"/><path class="cls-1" d="M1014.82,420a.4.4,0,0,0,.41.63c4.63-1.18,21.4-3.44,21.06,25.46-.39,33.54-27.31,66.87-29.13,69.38s-11.47,17.08-16.36,10,1.09-41.58,3.57-54c2.21-11.12,9.72-55.27,1.38-73a8.86,8.86,0,0,0-9.17-5c-7.28,1-20.88,5.14-34,22.11a.4.4,0,0,0,.55.56c5.14-4.11,16.25-11.67,19.31-2.85,4,11.58,3.48,26.19-6.26,77s3.84,55.61,12.38,54.61,53.84-35.18,68.9-95C1062.29,391,1031.58,399.17,1014.82,420Z" transform="translate(-860.77 -380.64)"/><path class="cls-1" d="M972.46,384.46a.26.26,0,0,0,0-.47,21.17,21.17,0,0,0-13.12-3.28c-6.15.52-9.9,2.07-11.53,3.24a.27.27,0,0,0,.09.48c.85.19,1.82.81,3.59,2.38a13.5,13.5,0,0,1,4.05,8,.27.27,0,0,0,.51.09C956.91,393.38,958.91,390.23,972.46,384.46Z" transform="translate(-860.77 -380.64)"/></svg>